<?xml version="1.0" encoding="UTF-8"?><svg id="CIRCLE_OUTLINE_BLACK" xmlns="http://www.w3.org/2000/svg" xmlns:xlink="http://www.w3.org/1999/xlink" viewBox="0 0 512 512"><defs>
  <radialGradient id="Degradado_sin_nombre_24" cx="93.41886" cy="92.85318" fx="53.41886" fy="052.85318" r="585.50279" gradientTransform="translate(103.91147 -53.78581) rotate(43.54557) scale(1 1.22254)" gradientUnits="userSpaceOnUse"><stop offset="0" stop-color="#4bf4c9"/><stop offset=".01922" stop-color="#48eeca"/><stop offset=".167" stop-color="#34c6d5"/><stop offset=".30197" stop-color="#25a8dc"/><stop offset=".41847" stop-color="#1d97e1"/><stop offset=".50317" stop-color="#1a91e3"/><stop offset=".5065" stop-color="#1a90e2"/><stop offset=".73737" stop-color="#1b57db"/><stop offset=".90852" stop-color="#1b33d6"/><stop offset="1" stop-color="#1c26d5"/></radialGradient></defs>
  <rect height="100%" width="100%" fill="url(#Degradado_sin_nombre_24)"/>
  <path d="M327.45381,129.91016v145.42969l-152.56982-145.42969h-59.93018v172.08984c8.60986,8.97998,17.45996,17.97998,26.53027,26.9502,15.55957,15.3999,31.16992,30.1499,46.69971,44.16992v-134.47998l152.56982,145.42969h59.93018v-254.15967h-73.22998Z" fill="#fff"/><path d="M127.66385,34.45c53.9,36.87,111.51,85.17,166.8,139.87,6.67,6.6,13.32,13.3,19.76,19.92,2.89,2.97,2.82,7.72-.15,10.61-1.46,1.41-3.34,2.12-5.23,2.12-1.95,0-3.9-.76-5.37-2.27-6.38-6.55-12.95-13.19-19.55-19.72-55.63-55.03-113.56-103.46-167.54-140.06-.86-.58-1.56-1.32-2.09-2.14l13.37-8.33Z" fill="#fff"/><path d="M355.90401,491.77002c-2.30029.97998-4.62012,1.91992-6.9502,2.83008-2.98975,1.16992-6.00977,2.27979-9.06006,3.33008-48.66992-29.32031-102.72998-70.43994-156.73975-119.25-15.72998-14.2002-31.52002-29.14014-46.9502-44.3999-8.89014-8.80029-17.85986-17.91016-26.66016-27.09033-38.02979-39.65967-71.87988-79.43994-100.63965-118.31006.81982-3.04004,1.69971-6.06982,2.62988-9.06982.74023-2.39014,1.52002-4.76025,2.33984-7.12012,1.43994.45996,2.75,1.37012,3.70996,2.68994,29.11035,39.81006,63.69043,80.66992,102.78027,121.43018,8.70996,9.08008,17.58984,18.1001,26.38965,26.81006,15.26025,15.09961,30.89014,29.87988,46.46045,43.92969,55.21973,49.91016,110.38965,91.6001,159.5498,120.59033,1.47021.86963,2.54004,2.15967,3.14014,3.62988Z" fill="#fff"/><path d="M471.21385,394.69c-12.78-22.49-28.61-46.63-47.11-71.82-2.45-3.33-7.15-4.05-10.49-1.6-3.33,2.45-4.05,7.14-1.6,10.48,19.04,25.94,35.19,50.69,47.98,73.58.56,1,1.31,1.81,2.18,2.43l9.04-13.07Z" fill="#fff"/></svg>